<?xml version="1.0" encoding="utf-8"?><svg xmlns="http://www.w3.org/2000/svg" xmlns:xlink="http://www.w3.org/1999/xlink" width="1920" height="810" preserveAspectRatio="xMidYMid" viewBox="0 0 1920 810" style="z-index:1;margin-right:-2px;display:block;background-repeat-y:initial;background-repeat-x:initial;animation-play-state:paused" ><g transform="translate(960,405) scale(1,1) translate(-960,-405)" style="transform:matrix(1, 0, 0, 1, 0, 0);animation-play-state:paused" ><linearGradient id="lg-0.5975948086230591" x1="0" x2="1" y1="0" y2="0" style="animation-play-state:paused" ><stop stop-color="#e122e1" offset="0" style="animation-play-state:paused" ></stop>

  
<stop stop-color="#00faff" offset="1" style="animation-play-state:paused" ></stop></linearGradient>
<path d="M 0 0 M 0 774.808 Q 192 687.047 384 679.518 T 768 717.935 T 1152 640.94 T 1536 629.701 T 1920 570.637 L 1920 190.159 Q 1728 240.351 1536 231.864 T 1152 209.034 T 768 111.319 T 384 101.367 T 0 46.344 Z" fill="url(#lg-0.5975948086230591)" opacity="0.4" style="opacity:0.4;animation-play-state:paused" ></path>
<path d="M 0 0 M 0 751.339 Q 192 679.693 384 679.286 T 768 711.196 T 1152 607.408 T 1536 623.833 T 1920 608.711 L 1920 203.943 Q 1728 209.334 1536 204.431 T 1152 188.807 T 768 139.816 T 384 137.028 T 0 70.4741 Z" fill="url(#lg-0.5975948086230591)" opacity="0.4" style="opacity:0.4;animation-play-state:paused" ></path>
<path d="M 0 0 M 0 706.363 Q 192 715.427 384 710.23 T 768 661.927 T 1152 629.868 T 1536 598.744 T 1920 582.924 L 1920 229.779 Q 1728 166.115 1536 163.849 T 1152 144.156 T 768 139.872 T 384 90.7946 T 0 62.4982 Z" fill="url(#lg-0.5975948086230591)" opacity="0.4" style="opacity:0.4;animation-play-state:paused" ></path>
<path d="M 0 0 M 0 765.874 Q 192 716.096 384 708.048 T 768 685.822 T 1152 601.604 T 1536 596.623 T 1920 571.337 L 1920 223.271 Q 1728 238.925 1536 236.371 T 1152 157.171 T 768 166.47 T 384 94.9085 T 0 49.4492 Z" fill="url(#lg-0.5975948086230591)" opacity="0.4" style="opacity:0.4;animation-play-state:paused" ></path></g></svg>